<svg xmlns="http://www.w3.org/2000/svg" viewBox="0 0 960 600" role="img" aria-labelledby="title desc">
  <title id="title">Project placeholder: Seasonal Cleanup Reset</title>
  <desc id="desc">Leaf and clean sweep motif on a dark premium background.</desc>
  <defs>
    <linearGradient id="bg" x1="0" y1="0" x2="1" y2="1">
      <stop offset="0" stop-color="#07150d"/>
      <stop offset="1" stop-color="#031008"/>
    </linearGradient>
    <linearGradient id="accent" x1="0" y1="0" x2="1" y2="1">
      <stop offset="0" stop-color="#b6ff3b"/>
      <stop offset="1" stop-color="#19d38d"/>
    </linearGradient>
  </defs>
  <rect width="960" height="600" fill="url(#bg)"/>
  <rect x="56" y="56" width="848" height="488" rx="28" fill="rgba(12,22,16,.62)" stroke="rgba(180,255,210,.18)" stroke-width="3"/>
  <path d="M220 410 C220 300 310 220 420 220 C420 330 330 410 220 410 Z" fill="url(#accent)" opacity=".85"/>
  <path d="M260 372 C308 340 348 300 388 252" stroke="rgba(4,10,7,.55)" stroke-width="10" stroke-linecap="round"/>
  <path d="M520 380 C610 330 720 340 820 400" fill="none" stroke="#19d38d" stroke-opacity=".45" stroke-width="10" stroke-linecap="round"/>
  <path d="M520 440 C620 410 730 420 820 470" fill="none" stroke="#b6ff3b" stroke-opacity=".45" stroke-width="10" stroke-linecap="round"/>
  <path d="M720 210 l10 -18 l10 18 l-10 18 Z" fill="#d7ff75" opacity=".9"/>
  <path d="M780 250 l8 -14 l8 14 l-8 14 Z" fill="#19d38d" opacity=".9"/>
</svg>

