<svg xmlns="http://www.w3.org/2000/svg" viewBox="0 0 760 560" role="img" aria-labelledby="title desc">
  <title id="title">Developer systems map</title>
  <desc id="desc">Abstract interface diagram connecting software delivery, WordPress, automation, AI, analytics, and leadership.</desc>
  <rect width="760" height="560" rx="34" fill="#07111f"/>
  <path d="M62 88h636v384H62z" fill="#0b1b31" stroke="#1b75d0" stroke-width="2"/>
  <path d="M94 126h572M94 432h572" stroke="#1f3552" stroke-width="2"/>
  <g fill="none" stroke="#38bdf8" stroke-width="3" opacity=".78">
    <path d="M178 274h121l71-86h126l91 86"/>
    <path d="M178 274h166l72 98h171"/>
    <path d="M299 274l117 98"/>
  </g>
  <g font-family="Arial, sans-serif" font-size="18" font-weight="700">
    <g transform="translate(111 236)">
      <rect width="134" height="76" rx="16" fill="#10294a" stroke="#3b82f6"/>
      <text x="67" y="45" text-anchor="middle" fill="#dbeafe">Software</text>
    </g>
    <g transform="translate(314 150)">
      <rect width="142" height="76" rx="16" fill="#0f3157" stroke="#60a5fa"/>
      <text x="71" y="45" text-anchor="middle" fill="#e0f2fe">WordPress</text>
    </g>
    <g transform="translate(502 236)">
      <rect width="148" height="76" rx="16" fill="#082f49" stroke="#22d3ee"/>
      <text x="74" y="45" text-anchor="middle" fill="#ecfeff">AI + Data</text>
    </g>
    <g transform="translate(333 334)">
      <rect width="166" height="76" rx="16" fill="#13223b" stroke="#f59e0b"/>
      <text x="83" y="45" text-anchor="middle" fill="#fff7ed">Automation</text>
    </g>
  </g>
  <g fill="#38bdf8">
    <circle cx="178" cy="274" r="7"/>
    <circle cx="299" cy="274" r="7"/>
    <circle cx="370" cy="188" r="7"/>
    <circle cx="496" cy="188" r="7"/>
    <circle cx="587" cy="274" r="7"/>
    <circle cx="416" cy="372" r="7"/>
  </g>
  <g opacity=".45" stroke="#94a3b8">
    <path d="M112 164h80M112 184h126M112 204h62"/>
    <path d="M540 358h92M540 378h54M540 398h110"/>
  </g>
</svg>
