<svg xmlns="http://www.w3.org/2000/svg" viewBox="0 0 1200 760" role="img" aria-label="Abstract electric-blue network map">
  <defs>
    <linearGradient id="bg" x1="0" y1="0" x2="1" y2="1">
      <stop offset="0" stop-color="#0b1233"/>
      <stop offset="1" stop-color="#050713"/>
    </linearGradient>
    <radialGradient id="glow" cx="30%" cy="20%" r="70%">
      <stop offset="0" stop-color="#58b7ff" stop-opacity=".35"/>
      <stop offset=".6" stop-color="#2f6bff" stop-opacity=".18"/>
      <stop offset="1" stop-color="#050713" stop-opacity="0"/>
    </radialGradient>
    <filter id="soft" x="-20%" y="-20%" width="140%" height="140%">
      <feGaussianBlur stdDeviation="2.6" result="b"/>
      <feColorMatrix in="b" type="matrix" values="1 0 0 0 0  0 1 0 0 0  0 0 1 0 0  0 0 0 .85 0" result="c"/>
      <feMerge>
        <feMergeNode in="c"/>
        <feMergeNode in="SourceGraphic"/>
      </feMerge>
    </filter>
  </defs>

  <rect width="1200" height="760" fill="url(#bg)"/>
  <rect width="1200" height="760" fill="url(#glow)"/>

  <g fill="none" stroke="#9fb7ff" stroke-opacity=".32" stroke-width="2">
    <path d="M140 160 C 260 90, 330 110, 420 190 S 640 310, 760 240 S 980 120, 1090 210"/>
    <path d="M180 560 C 300 520, 420 540, 520 460 S 760 320, 880 410 S 1010 520, 1120 460"/>
    <path d="M240 260 C 330 320, 430 360, 520 330 S 710 220, 820 260 S 1020 350, 1080 300"/>
    <path d="M300 170 C 370 260, 430 320, 500 360 S 650 430, 760 520 S 940 650, 1100 620"/>
  </g>

  <g filter="url(#soft)">
    <g fill="#58b7ff" fill-opacity=".55" stroke="#c7e7ff" stroke-opacity=".55" stroke-width="1.5">
      <circle cx="140" cy="160" r="7"/>
      <circle cx="420" cy="190" r="6"/>
      <circle cx="760" cy="240" r="7"/>
      <circle cx="1090" cy="210" r="6"/>
      <circle cx="180" cy="560" r="7"/>
      <circle cx="520" cy="460" r="6"/>
      <circle cx="880" cy="410" r="7"/>
      <circle cx="1120" cy="460" r="6"/>
      <circle cx="240" cy="260" r="6"/>
      <circle cx="520" cy="330" r="7"/>
      <circle cx="820" cy="260" r="6"/>
      <circle cx="1080" cy="300" r="7"/>
      <circle cx="500" cy="360" r="6"/>
      <circle cx="760" cy="520" r="7"/>
      <circle cx="1100" cy="620" r="6"/>
    </g>
    <g fill="none" stroke="#2f6bff" stroke-opacity=".55" stroke-width="1.5">
      <circle cx="600" cy="380" r="120"/>
      <circle cx="600" cy="380" r="220" stroke-opacity=".26"/>
    </g>
  </g>

  <g fill="#e7ecff" fill-opacity=".08">
    <rect x="60" y="70" width="1080" height="620" rx="18"/>
  </g>
</svg>

