<!--
File purpose: Local hero dashboard illustration for Nolan Showcase Theme X11.
References: front-page.php and static preview pages.
Behavior: Renders a website services dashboard mockup without remote assets.
Return values: Not applicable.
-->
<svg xmlns="http://www.w3.org/2000/svg" viewBox="0 0 900 680" role="img" aria-labelledby="title desc">
<title id="title">Website services dashboard</title><desc id="desc">Layered dashboard cards for analytics, launch tasks, and service planning.</desc>
<rect width="900" height="680" rx="28" fill="#10212b"/>
<rect x="56" y="54" width="788" height="572" rx="24" fill="#f7fbfd"/>
<rect x="88" y="90" width="724" height="64" rx="14" fill="#071018"/>
<circle cx="124" cy="122" r="10" fill="#ffb454"/><circle cx="154" cy="122" r="10" fill="#0f8f8c"/><circle cx="184" cy="122" r="10" fill="#edf7f7"/>
<rect x="112" y="190" width="310" height="166" rx="18" fill="#ffffff" stroke="#d9e2ea"/>
<rect x="452" y="190" width="336" height="166" rx="18" fill="#e8f6f6"/>
<rect x="112" y="390" width="204" height="148" rx="18" fill="#0f8f8c"/>
<rect x="342" y="390" width="204" height="148" rx="18" fill="#ffffff" stroke="#d9e2ea"/>
<rect x="572" y="390" width="216" height="148" rx="18" fill="#ffffff" stroke="#d9e2ea"/>
<path d="M142 314 C190 246 240 300 284 238 S362 236 392 216" fill="none" stroke="#0f8f8c" stroke-width="10" stroke-linecap="round"/>
<rect x="142" y="220" width="128" height="16" rx="8" fill="#121826"/><rect x="142" y="254" width="90" height="12" rx="6" fill="#8aa0b2"/>
<rect x="484" y="222" width="126" height="18" rx="9" fill="#121826"/><rect x="484" y="260" width="250" height="14" rx="7" fill="#7fa4a6"/><rect x="484" y="294" width="196" height="14" rx="7" fill="#7fa4a6"/>
<rect x="142" y="430" width="124" height="16" rx="8" fill="#fff"/><rect x="142" y="468" width="88" height="12" rx="6" fill="#bce7e6"/>
<rect x="374" y="430" width="118" height="16" rx="8" fill="#121826"/><rect x="374" y="468" width="120" height="12" rx="6" fill="#8aa0b2"/>
<rect x="604" y="430" width="130" height="16" rx="8" fill="#121826"/><rect x="604" y="468" width="100" height="12" rx="6" fill="#8aa0b2"/>
</svg>
