<svg xmlns="http&#58;//www.w3.org/2000/svg" width="1200" height="900" viewBox="0 0 1200 900" role="img" aria-label="Event coverage placeholder">
  <defs>
    <linearGradient id="bg" x1="0" y1="0" x2="1" y2="1">
      <stop offset="0" stop-color="#080806"/>
      <stop offset="0.55" stop-color="#11100d"/>
      <stop offset="1" stop-color="#181714"/>
    </linearGradient>
    <radialGradient id="spot" cx="50%" cy="20%" r="65%">
      <stop offset="0" stop-color="#b99558" stop-opacity="0.22"/>
      <stop offset="0.75" stop-color="#b66f4f" stop-opacity="0.06"/>
      <stop offset="1" stop-color="#080806" stop-opacity="0"/>
    </radialGradient>
  </defs>
  <rect width="1200" height="900" fill="url(#bg)"/>
  <rect width="1200" height="900" fill="url(#spot)"/>
  <g opacity="0.88">
    <rect x="80" y="90" width="1040" height="720" rx="28" fill="rgba(247,241,231,.02)" stroke="rgba(216,196,164,.14)" stroke-width="2"/>
    <path d="M170 690h860" stroke="rgba(216,196,164,.22)" stroke-width="3" stroke-linecap="round"/>
    <path d="M260 650c120-170 260-260 340-260s220 90 340 260" fill="none" stroke="rgba(247,241,231,.12)" stroke-width="3" stroke-linecap="round"/>
    <path d="M520 340l80-140 80 140" fill="none" stroke="rgba(185,149,88,.45)" stroke-width="3" stroke-linejoin="round"/>
    <circle cx="600" cy="380" r="70" fill="none" stroke="rgba(216,196,164,.22)" stroke-width="2"/>
  </g>
  <g opacity="0.6">
    <path d="M240 220h40M920 220h40" stroke="rgba(247,241,231,.12)" stroke-width="2" stroke-linecap="round"/>
    <path d="M240 250h40M920 250h40" stroke="rgba(247,241,231,.10)" stroke-width="2" stroke-linecap="round"/>
    <path d="M240 280h40M920 280h40" stroke="rgba(247,241,231,.08)" stroke-width="2" stroke-linecap="round"/>
  </g>
</svg>

