<svg xmlns="http&#58;//www.w3.org/2000/svg" width="1200" height="900" viewBox="0 0 1200 900" role="img" aria-label="Editorial portrait placeholder">
  <defs>
    <linearGradient id="bg" x1="0" y1="0" x2="1" y2="1">
      <stop offset="0" stop-color="#080806"/>
      <stop offset="0.55" stop-color="#11100d"/>
      <stop offset="1" stop-color="#181714"/>
    </linearGradient>
    <radialGradient id="warm" cx="35%" cy="30%" r="70%">
      <stop offset="0" stop-color="#b99558" stop-opacity="0.22"/>
      <stop offset="0.7" stop-color="#b66f4f" stop-opacity="0.08"/>
      <stop offset="1" stop-color="#11100d" stop-opacity="0"/>
    </radialGradient>
    <linearGradient id="frame" x1="0" y1="0" x2="0" y2="1">
      <stop offset="0" stop-color="#d8c4a4" stop-opacity="0.35"/>
      <stop offset="1" stop-color="#d8c4a4" stop-opacity="0.08"/>
    </linearGradient>
  </defs>
  <rect width="1200" height="900" fill="url(#bg)"/>
  <rect width="1200" height="900" fill="url(#warm)"/>
  <g opacity="0.85">
    <rect x="90" y="80" width="1020" height="740" rx="28" fill="none" stroke="url(#frame)" stroke-width="3"/>
    <rect x="130" y="120" width="940" height="660" rx="24" fill="rgba(247,241,231,.02)" stroke="rgba(216,196,164,.18)" stroke-width="2"/>
  </g>
  <g opacity="0.9">
    <circle cx="600" cy="450" r="210" fill="none" stroke="rgba(185,149,88,.45)" stroke-width="4"/>
    <circle cx="600" cy="450" r="150" fill="none" stroke="rgba(216,196,164,.28)" stroke-width="2"/>
    <circle cx="600" cy="450" r="92" fill="none" stroke="rgba(247,241,231,.18)" stroke-width="2"/>
  </g>
  <g opacity="0.7">
    <path d="M260 690c90-120 200-180 340-180s250 60 340 180" fill="none" stroke="rgba(216,196,164,.30)" stroke-width="3" stroke-linecap="round"/>
    <path d="M320 260h560" stroke="rgba(247,241,231,.14)" stroke-width="2" stroke-linecap="round"/>
    <path d="M320 640h560" stroke="rgba(247,241,231,.14)" stroke-width="2" stroke-linecap="round"/>
  </g>
  <g opacity="0.9">
    <path d="M1010 150l40-20M1030 170l20-40M180 720l-40 20M160 700l-20 40" stroke="rgba(185,149,88,.55)" stroke-width="2" stroke-linecap="round"/>
  </g>
</svg>

