<svg xmlns="http&#58;//www.w3.org/2000/svg" width="1200" height="900" viewBox="0 0 1200 900" role="img" aria-label="Process contact sheet placeholder">
  <defs>
    <linearGradient id="bg" x1="0" y1="0" x2="1" y2="1">
      <stop offset="0" stop-color="#080806"/>
      <stop offset="0.55" stop-color="#11100d"/>
      <stop offset="1" stop-color="#181714"/>
    </linearGradient>
    <radialGradient id="warm" cx="70%" cy="18%" r="70%">
      <stop offset="0" stop-color="#b99558" stop-opacity="0.18"/>
      <stop offset="0.75" stop-color="#b66f4f" stop-opacity="0.06"/>
      <stop offset="1" stop-color="#11100d" stop-opacity="0"/>
    </radialGradient>
  </defs>
  <rect width="1200" height="900" fill="url(#bg)"/>
  <rect width="1200" height="900" fill="url(#warm)"/>
  <g opacity="0.9">
    <rect x="90" y="90" width="1020" height="720" rx="30" fill="rgba(247,241,231,.02)" stroke="rgba(216,196,164,.14)" stroke-width="2"/>
  </g>
  <g opacity="0.75">
    <g transform="translate(160 180)">
      <rect width="880" height="540" rx="26" fill="rgba(17,16,13,.55)" stroke="rgba(216,196,164,.14)" stroke-width="2"/>
      <g opacity="0.85">
        <rect x="30" y="30" width="250" height="150" rx="18" fill="rgba(247,241,231,.02)" stroke="rgba(216,196,164,.14)" stroke-width="2"/>
        <rect x="315" y="30" width="250" height="150" rx="18" fill="rgba(247,241,231,.02)" stroke="rgba(216,196,164,.12)" stroke-width="2"/>
        <rect x="600" y="30" width="250" height="150" rx="18" fill="rgba(247,241,231,.02)" stroke="rgba(216,196,164,.12)" stroke-width="2"/>
        <rect x="30" y="210" width="250" height="150" rx="18" fill="rgba(247,241,231,.02)" stroke="rgba(216,196,164,.12)" stroke-width="2"/>
        <rect x="315" y="210" width="250" height="150" rx="18" fill="rgba(247,241,231,.02)" stroke="rgba(216,196,164,.12)" stroke-width="2"/>
        <rect x="600" y="210" width="250" height="150" rx="18" fill="rgba(247,241,231,.02)" stroke="rgba(216,196,164,.12)" stroke-width="2"/>
      </g>
      <path d="M40 420h800" stroke="rgba(247,241,231,.10)" stroke-width="2" stroke-linecap="round"/>
      <path d="M40 455h620" stroke="rgba(247,241,231,.07)" stroke-width="2" stroke-linecap="round"/>
      <path d="M40 490h720" stroke="rgba(247,241,231,.08)" stroke-width="2" stroke-linecap="round"/>
    </g>
  </g>
</svg>

