<svg xmlns="http://www.w3.org/2000/svg" viewBox="0 0 1200 800" role="img" aria-label="Nursery display with potted plants">
  <defs>
    <linearGradient id="bg" x1="0" y1="0" x2="1" y2="1">
      <stop offset="0" stop-color="#fffaf3"/>
      <stop offset="1" stop-color="#f1eadc"/>
    </linearGradient>
    <linearGradient id="leaf" x1="0" y1="0" x2="1" y2="1">
      <stop offset="0" stop-color="#8aa66e"/>
      <stop offset="1" stop-color="#5f7650"/>
    </linearGradient>
    <linearGradient id="pot" x1="0" y1="0" x2="1" y2="1">
      <stop offset="0" stop-color="#d4b78b"/>
      <stop offset="1" stop-color="#af8355"/>
    </linearGradient>
  </defs>
  <rect width="1200" height="800" rx="48" fill="url(#bg)"/>
  <circle cx="930" cy="150" r="140" fill="#dfe8d2"/>
  <rect x="115" y="520" width="970" height="145" rx="28" fill="#d9c8ab"/>
  <rect x="150" y="470" width="900" height="34" rx="17" fill="#b79a6d"/>
  <g transform="translate(225 168)">
    <ellipse cx="125" cy="150" rx="122" ry="180" fill="#eef5e7"/>
    <ellipse cx="125" cy="150" rx="98" ry="150" fill="#d9e8cb"/>
    <path d="M126 52c24 30 24 68 0 104-24-36-24-74 0-104Z" fill="url(#leaf)"/>
    <path d="M93 75c36 18 52 48 48 92-38-10-57-39-48-92Z" fill="#7f9d66"/>
    <path d="M157 75c-36 18-52 48-48 92 38-10 57-39 48-92Z" fill="#6d8a57"/>
    <path d="M125 150v178" stroke="#51664b" stroke-width="10" stroke-linecap="round"/>
    <path d="M125 210c-30 8-58 27-83 58" stroke="#51664b" stroke-width="8" stroke-linecap="round" fill="none"/>
    <path d="M125 238c31 11 56 31 76 58" stroke="#51664b" stroke-width="8" stroke-linecap="round" fill="none"/>
    <ellipse cx="125" cy="295" rx="98" ry="26" fill="#cfe0bb"/>
    <path d="M58 300h134l-20 116H78L58 300Z" fill="url(#pot)"/>
    <path d="M43 298h164v24H43z" fill="#c39b6a"/>
  </g>
  <g transform="translate(590 170)">
    <ellipse cx="120" cy="150" rx="122" ry="180" fill="#fbf1df"/>
    <path d="M120 58c20 22 30 50 31 84 2 50-10 92-31 126-21-34-33-76-31-126 1-34 11-62 31-84Z" fill="url(#leaf)"/>
    <path d="M90 106c-35 1-66 16-94 46 41 17 77 12 114-15" fill="#86a96d"/>
    <path d="M149 104c35 1 66 16 94 46-41 17-77 12-114-15" fill="#6b8459"/>
    <path d="M120 150v172" stroke="#51664b" stroke-width="10" stroke-linecap="round"/>
    <path d="M120 208c-29 8-56 27-80 57" stroke="#51664b" stroke-width="8" stroke-linecap="round" fill="none"/>
    <path d="M120 245c28 7 53 26 75 56" stroke="#51664b" stroke-width="8" stroke-linecap="round" fill="none"/>
    <ellipse cx="120" cy="297" rx="92" ry="25" fill="#f2d9a8"/>
    <path d="M55 300h130l-18 110H72L55 300Z" fill="url(#pot)"/>
  </g>
  <g transform="translate(870 230)">
    <rect x="0" y="0" width="180" height="270" rx="26" fill="#fff" stroke="#d2c1a4" stroke-width="8"/>
    <rect x="25" y="30" width="130" height="100" rx="18" fill="#dfe9d2"/>
    <path d="M90 40c22 15 34 36 35 64-24-4-43-24-35-64Z" fill="url(#leaf)"/>
    <path d="M90 40c-23 16-35 38-36 64 23-4 43-24 36-64Z" fill="#6f8c58"/>
    <rect x="30" y="150" width="120" height="16" rx="8" fill="#e7dcc5"/>
    <rect x="30" y="184" width="88" height="12" rx="6" fill="#cfb58b"/>
    <rect x="30" y="214" width="108" height="12" rx="6" fill="#cfb58b"/>
  </g>
</svg>
