<svg xmlns="http://www.w3.org/2000/svg" viewBox="0 0 800 600" role="img" aria-label="Monstera plant">
  <defs>
    <linearGradient id="b" x1="0" y1="0" x2="1" y2="1">
      <stop offset="0" stop-color="#fffaf3"/>
      <stop offset="1" stop-color="#f1ebdd"/>
    </linearGradient>
    <linearGradient id="l" x1="0" y1="0" x2="1" y2="1">
      <stop offset="0" stop-color="#94b37a"/>
      <stop offset="1" stop-color="#547044"/>
    </linearGradient>
  </defs>
  <rect width="800" height="600" rx="42" fill="url(#b)"/>
  <circle cx="610" cy="120" r="98" fill="#dfe8d2"/>
  <path d="M400 92c44 34 64 82 61 144-4 71-31 126-61 166-30-40-57-95-61-166-3-62 17-110 61-144Z" fill="url(#l)"/>
  <path d="M400 130c-72 0-134 32-166 86 52 18 111 5 166-36" fill="#7f9c65"/>
  <path d="M400 130c72 0 134 32 166 86-52 18-111 5-166-36" fill="#6d8855"/>
  <path d="M400 190c-50 14-92 43-126 86 58 3 108-20 126-58" fill="#8caf71"/>
  <path d="M400 190c50 14 92 43 126 86-58 3-108-20-126-58" fill="#5e7849"/>
  <path d="M400 252c-56 12-102 38-136 77 67 10 114-8 136-42" fill="#88a86d"/>
  <path d="M400 252c56 12 102 38 136 77-67 10-114-8-136-42" fill="#52693f"/>
  <path d="M400 186v180" stroke="#506847" stroke-width="10" stroke-linecap="round"/>
  <path d="M325 375h150l-18 115H343L325 375Z" fill="#c79d6c"/>
  <rect x="303" y="372" width="194" height="26" rx="13" fill="#e4d0ae"/>
</svg>
