<svg xmlns="http&#58;//www.w3.org/2000/svg" width="1200" height="900" viewBox="0 0 1200 900" role="img" aria-label="Branding session placeholder">
  <defs>
    <linearGradient id="bg" x1="0" y1="0" x2="1" y2="1">
      <stop offset="0" stop-color="#080806"/>
      <stop offset="0.55" stop-color="#11100d"/>
      <stop offset="1" stop-color="#181714"/>
    </linearGradient>
    <radialGradient id="glow" cx="70%" cy="22%" r="70%">
      <stop offset="0" stop-color="#b99558" stop-opacity="0.18"/>
      <stop offset="0.8" stop-color="#b66f4f" stop-opacity="0.06"/>
      <stop offset="1" stop-color="#11100d" stop-opacity="0"/>
    </radialGradient>
    <linearGradient id="line" x1="0" y1="0" x2="1" y2="0">
      <stop offset="0" stop-color="#d8c4a4" stop-opacity="0.06"/>
      <stop offset="0.5" stop-color="#d8c4a4" stop-opacity="0.22"/>
      <stop offset="1" stop-color="#d8c4a4" stop-opacity="0.06"/>
    </linearGradient>
  </defs>
  <rect width="1200" height="900" fill="url(#bg)"/>
  <rect width="1200" height="900" fill="url(#glow)"/>
  <g opacity="0.9">
    <rect x="90" y="90" width="1020" height="720" rx="28" fill="rgba(247,241,231,.02)" stroke="rgba(216,196,164,.16)" stroke-width="2"/>
    <path d="M130 210h940" stroke="url(#line)" stroke-width="2"/>
    <path d="M130 660h940" stroke="url(#line)" stroke-width="2"/>
  </g>
  <g opacity="0.78">
    <rect x="170" y="260" width="320" height="320" rx="26" fill="none" stroke="rgba(185,149,88,.42)" stroke-width="3"/>
    <rect x="520" y="260" width="510" height="110" rx="22" fill="rgba(247,241,231,.02)" stroke="rgba(216,196,164,.14)" stroke-width="2"/>
    <rect x="520" y="400" width="510" height="180" rx="22" fill="rgba(247,241,231,.02)" stroke="rgba(216,196,164,.14)" stroke-width="2"/>
    <path d="M560 440h430M560 480h380M560 520h410" stroke="rgba(247,241,231,.12)" stroke-width="2" stroke-linecap="round"/>
  </g>
  <g opacity="0.6">
    <path d="M250 420c60-80 120-80 180 0" fill="none" stroke="rgba(216,196,164,.22)" stroke-width="3" stroke-linecap="round"/>
    <circle cx="310" cy="390" r="16" fill="rgba(185,149,88,.35)"/>
    <circle cx="370" cy="390" r="16" fill="rgba(182,111,79,.25)"/>
  </g>
</svg>

