<svg xmlns="http&#58;//www.w3.org/2000/svg" width="1200" height="900" viewBox="0 0 1200 900" role="img" aria-label="Wedding moment placeholder">
  <defs>
    <linearGradient id="b" x1="0" y1="0" x2="1" y2="1">
      <stop offset="0" stop-color="#080806"/>
      <stop offset="0.55" stop-color="#11100d"/>
      <stop offset="1" stop-color="#181714"/>
    </linearGradient>
    <radialGradient id="l" cx="28%" cy="20%" r="70%">
      <stop offset="0" stop-color="#b99558" stop-opacity="0.24"/>
      <stop offset="0.8" stop-color="#b66f4f" stop-opacity="0.08"/>
      <stop offset="1" stop-color="#080806" stop-opacity="0"/>
    </radialGradient>
    <linearGradient id="film" x1="0" y1="0" x2="0" y2="1">
      <stop offset="0" stop-color="#d8c4a4" stop-opacity="0.22"/>
      <stop offset="1" stop-color="#d8c4a4" stop-opacity="0.06"/>
    </linearGradient>
  </defs>
  <rect width="1200" height="900" fill="url(#b)"/>
  <rect width="1200" height="900" fill="url(#l)"/>
  <g opacity="0.9">
    <rect x="70" y="70" width="1060" height="760" rx="30" fill="none" stroke="url(#film)" stroke-width="3"/>
    <rect x="110" y="120" width="980" height="660" rx="24" fill="rgba(247,241,231,.02)" stroke="rgba(216,196,164,.14)" stroke-width="2"/>
  </g>
  <g opacity="0.75">
    <path d="M220 640c80-130 190-195 330-195s250 65 330 195" fill="none" stroke="rgba(216,196,164,.30)" stroke-width="3" stroke-linecap="round"/>
    <circle cx="460" cy="410" r="70" fill="none" stroke="rgba(185,149,88,.42)" stroke-width="3"/>
    <circle cx="740" cy="410" r="70" fill="none" stroke="rgba(185,149,88,.42)" stroke-width="3"/>
    <path d="M520 520c40 34 80 34 160 0" fill="none" stroke="rgba(247,241,231,.16)" stroke-width="2" stroke-linecap="round"/>
  </g>
  <g opacity="0.6">
    <path d="M110 250h80M110 310h80M110 370h80M110 430h80M110 490h80M110 550h80M110 610h80" stroke="rgba(247,241,231,.10)" stroke-width="2" stroke-linecap="round"/>
    <path d="M1010 250h80M1010 310h80M1010 370h80M1010 430h80M1010 490h80M1010 550h80M1010 610h80" stroke="rgba(247,241,231,.10)" stroke-width="2" stroke-linecap="round"/>
  </g>
</svg>

